<?xml version="1.0" encoding="utf-8"?>
<!-- Generator: Adobe Illustrator 16.0.0, SVG Export Plug-In . SVG Version: 6.00 Build 0)  -->
<!DOCTYPE svg PUBLIC "-//W3C//DTD SVG 1.1//EN" "http://www.w3.org/Graphics/SVG/1.1/DTD/svg11.dtd">
<svg version="1.1" id="Layer_1" xmlns="http://www.w3.org/2000/svg" xmlns:xlink="http://www.w3.org/1999/xlink" x="0px" y="0px"
	 width="197.296px" height="131.946px" viewBox="0 0 197.296 131.946" enable-background="new 0 0 197.296 131.946"
	 xml:space="preserve">
<g>
	<path fill-rule="evenodd" clip-rule="evenodd" fill="#FFFFFF" d="M125.981,65.052c-0.333,0.031-0.661-0.037-0.842,0.096
		c-0.749,0.552-1.459,1.156-2.173,1.755c-1.287,1.078-2.613,2.116-3.832,3.268c-0.86,0.812-1.407,2.093-2.387,2.607
		c-1.48,0.777-1.51,2.463-2.652,3.376c-0.394,0.314-0.832,0.802-0.895,1.26c-0.295,2.146-2.458,2.825-3.388,4.464
		c-0.241,0.424-0.778,0.847-1.247,0.943c-1.379,0.283-2.406,1.69-4.003,1.237c-0.084-0.023-0.276,0.069-0.301,0.146
		c-0.301,0.908-1.07,0.663-1.7,0.678c-1.039,0.024-2.08,0.006-3.118-0.039c-0.344-0.015-0.69-0.139-1.021-0.255
		c-0.553-0.195-1.079-0.49-1.645-0.619c-0.524-0.12-1.084-0.078-1.735-0.112c0-0.74-0.076-1.372,0.015-1.979
		c0.226-1.515,0.989-2.756,1.854-4.025c0.745-1.094,1.112-2.451,2.283-3.251c0.521-0.356,1.077-0.664,1.628-0.976
		c0.966-0.547,1.888-1.24,2.924-1.575c1.178-0.381,2.44-0.04,3.661-0.931c0.846-0.618,2.287-0.193,3.469-0.933
		c1.227-0.769,2.864-0.857,4.279-1.363c0.345-0.123,0.522-0.715,0.777-1.091c-0.336-0.184-0.693-0.554-1.002-0.517
		c-0.873,0.104-1.72,0.505-2.589,0.553c-1.835,0.101-3.677,0.06-5.517,0.053c-0.223-0.001-0.445-0.148-0.668-0.229
		c0-0.104,0.001-0.209,0.002-0.313c0.397-0.078,0.792-0.196,1.192-0.225c0.957-0.066,1.919-0.072,2.875-0.142
		c0.297-0.021,0.595-0.144,0.874-0.261c0.501-0.211,0.969-0.558,1.487-0.657c0.737-0.143,1.943,0.165,2.183-0.21
		c0.688-1.076,1.654-0.665,2.498-0.879c0.256-0.064,0.506-0.166,0.743-0.282c0.407-0.199,0.791-0.45,1.207-0.628
		c0.244-0.104,0.582-0.033,0.79-0.172c0.851-0.569,1.589-1.408,2.515-1.734c1.172-0.414,2.11-0.902,2.746-2.013
		c0.254-0.443,0.829-0.696,1.241-1.056c0.534-0.466,1.074-0.929,1.568-1.436c0.497-0.508,0.9-1.109,1.415-1.596
		c0.83-0.785,1.762-1.465,2.565-2.274c0.521-0.524,1.781-1.521,2.28-1.784c0.634-0.335,1.199-0.805,1.779-1.236
		c0.78-0.579,1.546-1.18,2.323-1.763c0.196-0.147,0.438-0.24,0.622-0.4c0.561-0.484,1.065-1.044,1.663-1.475
		c1.097-0.791,2.264-1.484,3.364-2.269c0.775-0.553,1.495-1.185,2.232-1.79c0.4-0.33,0.759-0.925,1.185-0.972
		c1.586-0.176,2.304-1.606,3.542-2.285c1.258-0.69,2.29-1.791,3.418-2.715c0.402-0.331,0.747-0.789,1.206-0.98
		c0.568-0.237,1.238-0.057,1.547-0.934c0.163-0.463,0.914-0.742,1.432-1.053c0.751-0.45,1.699-0.701,2.257-1.315
		c0.771-0.849,1.622-1.376,2.62-1.907c0.762-0.406,1.423-0.978,2.328-1.096c0.049-0.007,0.066-0.157,0.126-0.191
		c0.909-0.514,1.774-1.289,2.745-1.46c1.395-0.247,2.866-0.06,4.305-0.038c0.271,0.004,0.617,0.017,0.797,0.176
		c1.041,0.918,2.047,1.875,3.053,2.831c0.392,0.372,0.916,0.712,1.097,1.177c0.462,1.188,0.771,2.438,1.126,3.667
		c0.066,0.227-0.024,0.605,0.105,0.692c1.327,0.89,0.615,2.22,0.758,3.354c0.288,2.31-0.617,4.767,1.031,6.928
		c0.43,0.563,0.653,1.094,1.456,1.096c0.693,0.001,1.388-0.057,1.896,0.708c0.15,0.226,1.306,0.181,1.396-0.016
		c0.444-0.972,1.243-0.628,1.931-0.712c0.395-0.048,1.048,0.038,1.145-0.156c0.619-1.232,2.129-0.84,2.948-1.75
		c0.556-0.617,1.478-0.888,2.14-1.43c0.64-0.524,1.244-1.139,1.707-1.82c0.583-0.86,1.146-1.781,1.474-2.757
		c0.769-2.287-0.792-3.777-2.208-5.081c-1.296-1.194-2.968-1.97-4.393-3.039c-0.863-0.647-1.829-1.375-2.282-2.296
		c-0.585-1.188-0.771-2.593-0.999-3.927c-0.161-0.938-0.097-1.914-0.153-2.871c-0.016-0.27-0.034-0.72-0.171-0.771
		c-0.979-0.367-0.687-1.209-0.833-1.91c-0.078-0.378-0.347-0.731-0.582-1.058c-0.394-0.545-1.107-1.018-1.193-1.595
		c-0.242-1.617-1.557-2.569-2.488-3.459c-1.102-1.054-1.618-2.489-2.811-3.42c-0.922-0.719-1.603-1.758-2.552-2.424
		c-1.484-1.041-2.979-2.053-4.407-3.18c-0.994-0.785-2.148-1.424-3.322-1.911c-1.326-0.549-2.753-0.855-4.138-1.264
		c-0.112-0.034-0.297-0.005-0.34-0.073c-0.725-1.156-1.901-0.72-2.916-0.84c-0.709-0.084-1.685,0.125-2.075-0.265
		c-0.731-0.73-1.512-0.628-2.312-0.64c-2.159-0.031-4.319-0.01-6.479,0.005c-0.354,0.003-0.908-0.046-1.027,0.144
		c-0.607,0.964-1.534,0.668-2.359,0.7c-1.799,0.069-3.599,0.075-5.397,0.127c-0.437,0.013-1.017-0.053-1.278,0.19
		c-0.883,0.818-1.937,0.563-2.936,0.651c-0.557,0.048-1.122,0.075-1.679,0.041c-0.837-0.051-0.878,0.455-0.863,1.076
		c0.015,0.61,0.053,1.081,0.892,1.067c1.758-0.029,3.519,0.025,5.278,0.056c0.316,0.006,0.64,0.03,0.947,0.104
		c0.975,0.234,1.931,0.61,2.917,0.717c1.347,0.146,2.716,0.086,4.074,0.135c0.312,0.011,0.854,0.038,0.892,0.17
		c0.297,1.042,1.155,0.58,1.774,0.744c0.425,0.113,0.881,0.206,1.241,0.437c0.687,0.44,1.303,0.986,1.968,1.461
		c0.678,0.483,1.639,0.781,2.016,1.428c0.832,1.428,1.554,2.963,1.257,4.75c-0.224,1.348,0.079,2.795-1.042,3.942
		c-0.521,0.534-0.749,1.35-1.262,1.896c-0.895,0.952-1.896,1.805-2.872,2.676c-0.53,0.473-1.082,0.927-1.661,1.338
		c-0.695,0.494-1.44,0.917-2.142,1.405c-0.375,0.26-0.7,0.591-1.049,0.888c-0.736,0.627-1.459,1.271-2.212,1.875
		c-0.938,0.752-1.923,1.444-2.843,2.215c-0.542,0.456-0.943,1.087-1.505,1.511c-1.1,0.833-2.281,1.556-3.398,2.367
		c-0.417,0.302-0.742,0.729-1.116,1.092c-0.555,0.538-1.072,1.126-1.683,1.59c-1.046,0.795-2.458,1.301-3.156,2.314
		c-0.91,1.319-2.594,1.492-3.388,2.819c-0.187,0.311-0.51,0.598-0.837,0.748c-0.206,0.094-0.762-0.05-0.779-0.152
		c-0.243-1.417-0.134-2.824-1.004-4.204c-0.626-0.993,0.309-2.68-1.055-3.641c-0.043-0.03-0.005-0.157-0.027-0.232
		c-0.412-1.339-0.823-2.678-1.248-4.012c-0.045-0.139-0.18-0.249-0.267-0.376c-0.509-0.743-1.065-1.459-1.51-2.239
		c-0.46-0.807-0.698-1.758-1.234-2.501c-0.859-1.191-1.852-2.292-2.848-3.376c-1.302-1.417-2.623-2.822-4.011-4.153
		c-1.004-0.964-2.121-1.813-3.225-2.668c-0.089-0.069-0.527,0.159-0.676,0.35c-0.299,0.385-0.514,0.835-0.755,1.264
		c-0.534,0.953-1.063,1.909-1.596,2.863c0.04,0.021,0.08,0.041,0.12,0.062c-0.486,0.407-0.973,0.814-1.723,1.443
		c0.057-0.909-0.095-1.796,0.157-1.931c1.056-0.567,0.658-1.501,0.805-2.295c0.051-0.272-0.02-0.722,0.121-0.797
		c1.17-0.622,0.711-1.724,0.866-2.648c0.075-0.451,0.133-1.139,0.414-1.276c0.746-0.364,0.665-0.933,0.417-1.381
		c-0.198-0.357-0.716-0.615-1.144-0.752c-0.816-0.26-1.67-0.4-2.507-0.593c-0.588-0.136-1.305-0.551-1.731-0.349
		c-0.588,0.279-1.245,0.964-1.367,1.576c-0.413,2.069,0.386,4.33-0.985,6.264c-0.212,3.823,0.013,7.685-1.106,11.427
		c-0.226,0.754-0.217,1.578-0.315,2.37c-0.134-0.004-0.267-0.008-0.4-0.011c-0.043-0.413-0.115-0.824-0.125-1.237
		c-0.041-1.839-0.084-3.679-0.088-5.519c-0.011-5.599,0.001-11.197-0.01-16.796c-0.001-0.387,0.033-0.922-0.19-1.136
		c-1.222-1.167-2.741-1.849-4.406-1.968c-3.123-0.224-6.232-0.027-9.288,0.748c-0.499,0.126-1.03,0.123-1.535,0.231
		c-0.196,0.042-0.46,0.193-0.523,0.359c-0.575,1.51-1.18,2.946-1.133,4.688c0.152,5.715,0.08,11.437,0.07,17.156
		c-0.001,0.538-0.171,1.076-0.263,1.614c-0.155-0.007-0.309-0.014-0.464-0.02c-0.067-0.352-0.178-0.703-0.194-1.057
		c-0.052-1.199-0.051-2.399-0.108-3.597c-0.047-0.997,0.162-2.174-0.293-2.947c-0.802-1.362-0.63-2.756-0.736-4.156
		c-0.079-1.035,0.034-2.093-0.123-3.112c-0.257-1.669-0.664-3.315-1.02-5.03c-0.952-0.261-1.579,0.223-2.387,0.803
		c-0.956,0.687-2.268,0.877-3.516,1.315c0.055,0.585-0.087,1.451,0.193,1.621c1.041,0.632,0.602,1.603,0.811,2.42
		c0.142,0.553,0.41,1.073,0.608,1.612c0.119,0.322,0.245,0.646,0.313,0.98c0.197,0.967,0.368,1.939,0.557,2.954
		c-0.025-0.004-0.319,0.038-0.425-0.083c-0.442-0.509-0.826-1.068-1.234-1.607c-0.595-0.786-1.188-1.575-1.79-2.355
		c-0.325-0.422-0.662-0.837-1.006-1.244c-0.176-0.208-0.187-0.194-1.13,0.542c-0.086,0.067-0.247,0.039-0.335,0.105
		c-0.518,0.387-1.09,0.729-1.521,1.199c-0.769,0.839-1.279,2.083-2.206,2.57c-1.5,0.789-1.561,2.551-2.846,3.434
		c-0.589,0.405-0.904,1.23-1.294,1.894c-0.346,0.587-0.587,1.236-0.94,1.818c-0.527,0.871-1.26,1.646-1.635,2.571
		c-0.532,1.313-0.819,2.727-1.212,4.097c-0.022,0.076-0.039,0.186-0.093,0.215c-1.016,0.55-0.755,1.559-0.872,2.426
		c-0.064,0.473,0.09,1.192-0.167,1.386c-1.085,0.819-0.68,1.95-0.784,2.961c-0.077,0.742-0.015,1.498-0.015,2.247
		c-0.118,0.096-0.235,0.191-0.353,0.286c-0.803-0.464-1.753-0.785-2.376-1.424c-1.118-1.147-2.037-2.447-3.689-2.964
		c-0.57-0.178-1.028-0.756-1.499-1.194c-0.511-0.475-0.929-1.363-1.469-1.432c-1.584-0.204-2.306-1.546-3.344-2.361
		c-1.053-0.827-1.861-2.026-2.984-2.874c-0.458-0.346-0.801-0.881-1.109-1.383c-0.473-0.773-0.766-1.677-1.324-2.374
		c-0.893-1.114-1.8-2.178-1.888-3.687c-0.004-0.077-0.016-0.194-0.063-0.221c-1.528-0.865-0.833-2.653-1.588-3.952
		c-0.817-1.403-0.11-3.479-1.01-5.219c-0.575-1.111,0.031-2.62-1.063-3.797c-0.678-0.729-0.869-1.909-1.295-2.879
		c-0.055-0.125-0.208-0.211-0.322-0.307c-0.522-0.44-1.282-0.775-1.527-1.335c-0.674-1.542-2.262-1.963-3.435-2.667
		c-0.9-0.54-1.948-1.612-3.338-1.238c-0.115,0.031-0.29-0.24-0.461-0.318c-0.423-0.193-0.857-0.498-1.292-0.505
		c-2.358-0.039-4.722-0.084-7.073,0.055c-0.805,0.048-1.594,0.597-2.348,0.995c-0.113,0.06-0.108,0.726,0.033,0.818
		c0.713,0.463,1.489,0.831,2.245,1.228c0.135,0.071,0.319,0.088,0.416,0.19c0.808,0.86,1.591,1.745,2.403,2.601
		c0.342,0.361,0.78,0.636,1.099,1.015c0.599,0.713,1.158,1.463,1.7,2.221c0.126,0.177,0.062,0.613,0.179,0.654
		c1.318,0.453,0.358,2.289,1.674,2.712c-0.047,2.396,0.972,4.887-0.658,7.145c-0.151,0.209-0.127,0.538-0.243,0.783
		c-0.23,0.49-0.596,0.937-0.732,1.447c-0.188,0.702-0.682,1.04-1.204,1.431c-0.637,0.477-1.187,1.068-1.823,1.546
		c-0.431,0.324-0.921,0.685-1.426,0.766c-0.839,0.135-2.063,0.409-2.486-0.015c-0.575-0.575-1.092-0.579-1.716-0.693
		c-1.783-0.324-3.56-0.68-5.338-1.027c-0.073-0.014-0.179-0.048-0.203-0.103c-0.483-1.08-1.477-0.702-2.298-0.813
		c-0.662-0.09-1.481,0.224-1.803-0.75c-0.036-0.107-0.454-0.191-0.627-0.121c-0.157,0.063-0.275,0.342-0.319,0.546
		c-0.299,1.38,1.017,2.14,1.325,3.334c0.23,0.896,1.083,1.637,1.675,2.435c0.403,0.544,0.769,1.14,1.268,1.582
		c0.9,0.796,1.896,1.483,2.836,2.235C8.426,34.224,9.786,35,11.5,35.008c0.513,0.002,1.139,0.099,1.513,0.4
		c0.759,0.611,6.256,0.77,6.941,0.08c0.027-0.027,0.035-0.104,0.051-0.104c0.704,0.001,1.412-0.033,2.11,0.035
		c0.258,0.025,0.497,0.431,0.738,0.425c1.451-0.037,2.789,0.176,3.977,1.125c0.616,0.492,1.516,0.68,2.027,1.242
		c0.769,0.846,1.542,1.553,2.64,1.951c0.559,0.203,1.011,0.7,1.507,1.069c0.805,0.599,1.603,1.209,2.415,1.8
		c0.178,0.13,0.434,0.161,0.599,0.301c0.591,0.501,1.125,1.073,1.743,1.537c0.668,0.503,1.481,0.831,2.097,1.385
		c1.176,1.06,2.115,2.38,3.691,2.969c0.5,0.187,0.93,0.617,1.331,1c1.131,1.083,2.013,2.439,3.658,2.923
		c0.518,0.152,0.976,0.634,1.372,1.05c0.856,0.9,1.626,1.88,2.483,2.78c0.82,0.86,1.864,1.562,1.742,2.973
		c-0.016,0.188,0.025,0.502,0.141,0.563c1.126,0.58,0.754,1.631,0.774,2.512c0.047,2.078,0.079,4.162-0.023,6.236
		c-0.068,1.396,0.501,2.955-0.803,4.133c-0.09,0.081-0.084,0.312-0.064,0.464c0.337,2.48-1.106,5.162,0.84,7.46
		c-0.235,1.779,1.478,2.364,2.248,3.51c0.707,1.052,2.334,1.033,3.232,2.064c0.729,0.837,1.58,1.565,2.342,2.375
		c0.049,0.052-0.156,0.501-0.327,0.577c-1.411,0.626-2.532,1.601-3.57,2.723c-0.473,0.512-1.079,0.949-1.704,1.261
		c-0.901,0.449-1.646,0.979-2.274,1.811c-0.441,0.583-1.267,0.878-1.928,1.291c-0.644,0.401-1.628,0.652-1.859,1.218
		c-0.295,0.719-1.602,0.792-1.138,1.899c0.32,0.766,0.707,1.532,0.849,2.336c0.255,1.444,0.554,2.851,0.949,4.271
		c0.435,1.563,0.895,3.17,1.283,4.771c0.047,0.193,0.199,0.458,0.355,0.502c0.16,0.046,0.417-0.1,0.579-0.228
		c0.764-0.603,1.492-1.253,2.271-1.837c0.555-0.415,1.31-0.635,1.726-1.146c0.716-0.879,1.326-1.791,2.597-1.858
		c0.103-0.006,0.226-0.08,0.298-0.16c1.084-1.194,2.194-2.329,3.768-2.921c0.513-0.193,1.144-0.609,1.311-1.072
		c0.355-0.982,1.367-1.015,1.962-1.636c0.53-0.554,1.666-0.64,2.012-1.234c0.877-1.508,2.554-1.672,3.807-2.818
		c0.148,0.734,0.119,1.39,0.408,1.842c0.537,0.843,1.447,1.479,1.862,2.36c0.723,1.537,2.286,1.856,3.5,2.554
		c0.908,0.521,2.167,0.544,3.271,0.894c1.61,0.509,3.443,0.316,5.326,0.432c0-3.17,0-6.118,0-9.066c0-1.433-0.195-1.613-1.497-1.008
		c-0.606,0.282-1.055,0.901-1.583,1.356c-0.223,0.193-0.471,0.358-0.707,0.536c-0.126-0.252-0.364-0.505-0.363-0.756
		c0.01-1.839,0.059-3.677,0.119-5.516c0.008-0.248,0.12-0.507,0.236-0.734c0.215-0.424,0.71-0.856,0.665-1.234
		c-0.169-1.397,1.238-2.075,1.373-3.303c0.01-0.094,0.335-0.132,0.377-0.246c0.369-0.99,1.416-1.571,1.408-2.85
		c-0.008-1.211-0.39-2.568,0.604-3.658c0.083-0.09-0.024-0.37-0.07-0.556c-0.166-0.668-0.449-1.327-0.493-2.002
		c-0.101-1.515-0.027-3.041-0.134-4.556c-0.075-1.062-0.331-2.111-0.532-3.321c0.283-0.063,0.772-0.27,1.262-0.27
		c4.319-0.003,8.638,0.021,12.958,0.067c0.41,0.004,0.819,0.206,1.229,0.315c-0.015,0.144-0.029,0.286-0.045,0.43
		c-0.807,0.041-1.613,0.083-2.421,0.121c-2.221,0.107-4.497-0.248-6.544,1.104c-0.492,0.324-0.778,0.513-0.784,1.113
		c-0.027,2.759,0.038,5.527-0.179,8.272c-0.155,1.968,1.727,3.4,1.166,5.395c-0.012,0.041,0.099,0.108,0.134,0.174
		c0.257,0.478,0.516,0.956,0.761,1.439c0.117,0.231,0.194,0.483,0.31,0.716c0.209,0.418,0.542,0.808,0.631,1.248
		c0.276,1.357-0.065,2.695,0.767,4.135c0.666,1.152,0.134,2.995,0.134,4.528c-1.264,0.041-2.31-0.609-2.749-1.593
		c-0.118-0.264-0.434-0.438-0.659-0.654c-0.171,0.272-0.487,0.543-0.49,0.817c-0.035,2.919-0.041,5.84,0.016,8.759
		c0.005,0.25,0.541,0.729,0.78,0.698c2.383-0.302,4.881,0.63,7.185-0.842c0.788-0.504,1.976-0.26,2.725-1.162
		c0.714-0.859,1.603-1.571,2.366-2.393c0.689-0.74,1.289-1.564,1.985-2.297c0.133-0.141,0.531-0.029,0.808-0.034
		c-0.028,0.894,0.018,1.798-0.112,2.677c-0.083,0.56-0.556,1.064-0.628,1.623c-0.126,0.986-0.072,1.995-0.11,2.994
		c-0.015,0.396,0.066,1.032-0.133,1.146c-1.193,0.682-0.692,1.815-0.846,2.762c-0.197,1.226,0.174,2.532-0.769,3.659
		c-0.275,0.329-0.042,1.084-0.042,1.814c4.021-2.544,7.777-4.92,11.846-7.493c0.172-0.428,2.496-1.071,2.84-0.33
		c0.358,0.771,0.872,0.763,1.457,0.905c0.168,0.042,0.331,0.165,0.46,0.289c0.539,0.514,1.106,1.005,1.585,1.572
		c0.743,0.881,2.099,0.853,2.718,1.968c0.253,0.455,0.86,0.881,1.377,0.991c1.166,0.249,1.852,1.021,2.565,1.842
		c0.155,0.18,0.521,0.177,0.53,0.18c0.491-1.007,1.106-1.804,1.258-2.681c0.271-1.57,0.455-3.115,1.048-4.64
		c0.406-1.045-0.021-2.371,0.911-3.339c0.146-0.15,0.166-0.446,0.193-0.681c0.125-1.053-0.729-2.197-1.858-2.55
		c-0.361-0.113-0.757-0.221-1.044-0.447c-0.626-0.494-1.156-1.111-1.793-1.589c-0.666-0.498-1.472-0.818-2.106-1.347
		c-1.184-0.986-2.064-2.318-3.656-2.832c-0.567-0.184-1.007-0.792-1.481-1.23c-0.551-0.51-1.071-1.053-1.613-1.572
		c-1.174-1.127-2.688-2.049-2.403-4.044c0.116-0.815-0.381-1.835,0.896-2.247c0.427-0.139,0.898-0.544,1.083-0.949
		c0.552-1.216,2.016-0.646,2.817-1.592c0.439-0.521,1.58-0.48,2.427-1.011c2.281-1.427,3.09-2.434,2.909-5.059
		c-0.082-1.188,0.027-2.518-0.485-3.504c-0.423-0.815-0.54-1.571-0.72-2.401c-0.229-1.058-0.653-2.073-1.008-3.102
		c-0.031-0.089-0.202-0.121-0.262-0.21c-0.229-0.342-0.539-0.672-0.633-1.052C125.986,66.263,126.022,65.69,125.981,65.052z
		 M155.995,112.07c-0.6-0.09-1.179-0.276-1.744-0.24c-1.077,0.067-1.654,0.951-2.379,1.61c-0.295,0.269-0.809,0.322-1.236,0.409
		c-0.129,0.025-0.302-0.166-0.455-0.259c0.217-0.206,0.476-0.384,0.643-0.625c0.411-0.592,0.764-1.225,1.168-1.821
		c0.525-0.773,0.985-1.621,1.639-2.271c1.191-1.184-1.093-0.739-0.644-1.511c-0.257-0.067-0.514-0.136-0.772-0.197
		c-0.013-0.003-0.038,0.066-0.064,0.096c-0.455,0.52-0.84,1.14-1.387,1.53c-0.694,0.495-1.521,0.803-2.29,1.192
		c-0.431,0.219-0.364,1.358-1.2,0.685c-0.085-0.069,0.568-0.862,0.643-1.354c0.227-1.498,1.59-2.187,2.398-3.194
		c0.639-0.794,1.309-1.605,1.931-2.446c0.699-0.948,1.39-1.94,2.262-2.712c1.23-1.089,2.04-2.207,1.292-4.229
		c-0.71,0.371-1.396,1.043-2.055,1.017c-1.978-0.081-2.524,1.718-3.414,2.72c-0.707,0.795-1.216,1.866-2.154,2.572
		c-0.415,0.313-0.79,0.701-1.107,1.114c-0.433,0.563-0.675,1.34-1.211,1.742c-0.941,0.706-1.808,1.367-1.904,2.647
		c-0.006,0.085-0.15,0.158-0.229,0.239c-0.565,0.582-1.136,1.158-1.692,1.747c-0.419,0.444-0.789,0.942-1.253,1.332
		c-0.113,0.095-0.744-0.174-0.737-0.225c0.153-1.199,0.134-2.498,0.629-3.55c0.409-0.867,0.327-1.348-0.221-1.953
		c-0.465-0.513-0.978-0.997-1.358-1.567c-0.516-0.772-1.374-0.826-1.849,0.024c-0.594,1.063-1.488,2.029-1.282,3.407
		c0.028,0.188,0.009,0.482-0.109,0.574c-1.088,0.849-0.735,2.069-0.859,3.166c-0.036,0.316,0.04,0.793-0.137,0.924
		c-1.192,0.889-0.692,2.176-0.862,3.301c-0.083,0.546,0.024,1.354-0.29,1.585c-0.756,0.553-0.577,1.243-0.637,1.926
		c-0.06,0.676,0.156,1.655-0.208,1.972c-1.147,0.998-0.654,2.153-0.709,3.25c0.35,0.185,0.683,0.297,0.934,0.506
		c0.641,0.534,1.237,1.12,1.865,1.669c0.71,0.622,1.407,1.267,2.164,1.828c0.684,0.507,1.506,0.839,2.148,1.387
		c0.76,0.647,1.563,1.019,2.553,1.029c0.071,0.001,0.123,0.202,0.216,0.257c0.329,0.192,0.653,0.447,1.013,0.522
		c1.012,0.212,1.784-0.269,2.587-0.86c0.708-0.522,1.662-0.705,2.397-1.2c0.817-0.55,1.493-1.306,2.262-1.933
		c0.926-0.756,1.948-1.404,2.81-2.226c0.81-0.771,1.375-1.806,2.208-2.543c0.953-0.844,1.84-1.635,1.873-3.021
		c0.005-0.226,0.088-0.505,0.237-0.664c0.992-1.063,0.486-2.284,0.547-3.385c-1.503-0.689-2.377,0.579-2.776,1.206
		c-0.751,1.177-1.212,0.449-1.925,0.293c0.559-0.639,1.089-1.126,1.471-1.711c0.578-0.887,1.766-1.51,1.339-2.881
		C155.99,112.715,156.021,112.423,155.995,112.07z M47.965,100.892c-1.498-0.445-2.136,0.761-3.02,1.43
		c-0.339,0.257-0.859,0.652-0.834,0.946c0.114,1.342-0.699,2.832,0.621,4.027c0.246,0.223,0.177,0.832,0.166,1.26
		c-0.002,0.074-0.581,0.27-0.671,0.182c-1.003-0.979-1.979-1.989-2.927-3.022c-0.395-0.43-0.881-0.889-1.022-1.416
		c-0.435-1.62-1.911-2.295-2.88-3.421c-0.713-0.829-1.518-1.58-2.2-2.432c-0.557-0.694-0.939-1.528-1.496-2.223
		c-0.854-1.064-1.78-2.071-2.704-3.077c-0.128-0.14-0.554-0.244-0.604-0.18c-0.451,0.581-1.09,1.157-1.217,1.821
		c-0.377,1.975,1.328,2.979,2.305,4.307c0.845,1.148,1.749,2.256,2.654,3.358c0.448,0.546,1.012,1,1.429,1.566
		c0.562,0.763,1.048,1.584,1.513,2.411c0.037,0.065-0.345,0.524-0.534,0.525c-0.379,0.002-0.841-0.085-1.125-0.313
		c-0.978-0.788-1.893-1.652-2.846-2.5c-0.439,0.469-0.808,0.861-1.185,1.264c0.559,0.918,1.109,1.843,1.683,2.753
		c0.182,0.289,0.484,0.514,0.621,0.817c0.122,0.271,0.091,0.609,0.128,0.918c-0.856-0.083-2.129,0.148-2.483-0.317
		c-0.717-0.943-1.428-0.504-2.136-0.598c-0.075,0.152-0.139,0.222-0.139,0.291c-0.005,1.03-0.328,2.075,0.919,2.813
		c0.73,0.431,1.21,1.311,1.735,2.038c0.09,0.124-0.116,0.68-0.266,0.718c-0.405,0.104-0.854,0.035-1.286,0.035
		c0.037-0.102,0.074-0.204,0.111-0.307c-0.364-0.203-0.732-0.399-1.092-0.612c-0.317-0.187-0.622-0.396-0.937-0.587
		c-0.269-0.161-0.546-0.309-0.819-0.463c-0.153,0.273-0.498,0.614-0.429,0.809c0.493,1.386,1.007,2.771,1.647,4.094
		c0.299,0.616,1.038,1.026,1.312,1.647c0.267,0.604,0.399,1.101,0.962,1.646c1.133,1.099,1.955,2.492,3.55,3.088
		c0.545,0.204,1.199,0.508,1.476,0.965c0.641,1.061,1.896,1.055,2.717,1.806c0.614,0.563,1.506,0.823,2.278,1.211
		c0.59,0.297,1.158,0.706,1.785,0.85c1.516,0.346,2.34-0.893,3.338-1.666c0.495-0.384,0.842-0.953,1.318-1.366
		c0.573-0.496,1.221-0.905,1.82-1.372c0.74-0.575,1.484-1.148,2.19-1.765c0.586-0.512,1.624-1.118,1.589-1.624
		c-0.138-2.029-0.615-4.036-0.968-6.051c-0.006-0.037-0.03-0.09-0.059-0.102c-1.063-0.412-0.7-1.368-0.815-2.139
		c-0.088-0.59,0.057-1.438-0.281-1.726c-0.967-0.823-0.681-1.869-0.822-2.845c-0.057-0.395,0.067-1.014-0.143-1.153
		c-1.102-0.735-0.648-1.849-0.815-2.806c-0.069-0.393-0.01-1.081-0.178-1.139C47.64,102.836,48.296,101.712,47.965,100.892z
		 M103.025,119.464c0.18-0.636-0.356-0.731-1.057-0.697c-1.913,0.095-3.827,0.158-5.738,0.275c-0.365,0.022-0.723,0.22-1.076,0.357
		c-0.375,0.146-0.739,0.448-1.111,0.454c-2.674,0.046-5.35,0.038-8.024,0.031c-0.305-0.001-0.622-0.069-0.912-0.169
		c-0.634-0.217-1.235-0.557-1.883-0.7c-1.889-0.418-3.795-0.758-5.69-1.149c-0.16-0.033-0.272-0.251-0.434-0.324
		c-0.449-0.203-0.9-0.425-1.375-0.53c-0.146-0.033-0.421,0.253-0.53,0.452c-0.039,0.071,0.212,0.349,0.375,0.475
		c0.822,0.638,1.653,1.266,2.494,1.88c0.507,0.371,0.991,0.851,1.564,1.038c1.459,0.477,2.964,0.811,4.447,1.215
		c0.263,0.071,0.509,0.208,0.762,0.316c0.445,0.19,0.887,0.54,1.334,0.548c2.713,0.049,5.438,0.15,8.139-0.034
		c1.533-0.104,3.031-0.72,4.542-1.117c0.097-0.025,0.151-0.182,0.249-0.234C100.311,120.9,101.527,120.258,103.025,119.464z"/>
	<path fill-rule="evenodd" clip-rule="evenodd" d="M125.981,65.052c0.041,0.639,0.005,1.211,0.136,1.741
		c0.094,0.38,0.403,0.71,0.633,1.052c0.06,0.089,0.23,0.121,0.262,0.21c0.354,1.028,0.779,2.044,1.008,3.102
		c0.18,0.83,0.297,1.586,0.72,2.401c0.513,0.986,0.403,2.316,0.485,3.504c0.181,2.625-0.628,3.632-2.909,5.059
		c-0.847,0.53-1.987,0.49-2.427,1.011c-0.802,0.946-2.266,0.376-2.817,1.592c-0.185,0.405-0.656,0.811-1.083,0.949
		c-1.276,0.412-0.779,1.432-0.896,2.247c-0.284,1.995,1.229,2.917,2.403,4.044c0.542,0.52,1.063,1.063,1.613,1.572
		c0.475,0.438,0.914,1.047,1.481,1.23c1.592,0.514,2.473,1.846,3.656,2.832c0.635,0.528,1.44,0.849,2.106,1.347
		c0.637,0.478,1.167,1.095,1.793,1.589c0.287,0.227,0.683,0.334,1.044,0.447c1.129,0.353,1.983,1.497,1.858,2.55
		c-0.027,0.234-0.048,0.53-0.193,0.681c-0.932,0.968-0.505,2.294-0.911,3.339c-0.593,1.524-0.777,3.069-1.048,4.64
		c-0.151,0.877-0.767,1.674-1.258,2.681c-0.01-0.003-0.375,0-0.53-0.18c-0.714-0.821-1.399-1.593-2.565-1.842
		c-0.517-0.11-1.124-0.536-1.377-0.991c-0.619-1.115-1.975-1.087-2.718-1.968c-0.479-0.567-1.046-1.059-1.585-1.572
		c-0.129-0.124-0.292-0.247-0.46-0.289c-0.585-0.143-1.099-0.135-1.457-0.905c-0.344-0.741-2.668-0.098-2.84,0.33
		c-4.068,2.573-7.825,4.949-11.846,7.493c0-0.73-0.233-1.485,0.042-1.814c0.942-1.127,0.571-2.434,0.769-3.659
		c0.153-0.946-0.348-2.08,0.846-2.762c0.199-0.113,0.118-0.75,0.133-1.146c0.038-0.999-0.016-2.008,0.11-2.994
		c0.072-0.559,0.545-1.063,0.628-1.623c0.13-0.879,0.084-1.783,0.112-2.677c-0.276,0.005-0.675-0.106-0.808,0.034
		c-0.696,0.732-1.296,1.557-1.985,2.297c-0.764,0.821-1.652,1.533-2.366,2.393c-0.749,0.902-1.937,0.658-2.725,1.162
		c-2.304,1.472-4.801,0.54-7.185,0.842c-0.239,0.03-0.775-0.448-0.78-0.698c-0.057-2.919-0.051-5.84-0.016-8.759
		c0.003-0.274,0.319-0.545,0.49-0.817c0.225,0.216,0.541,0.391,0.659,0.654c0.438,0.983,1.485,1.634,2.749,1.593
		c0-1.533,0.531-3.376-0.134-4.528c-0.832-1.439-0.49-2.777-0.767-4.135c-0.089-0.44-0.422-0.83-0.631-1.248
		c-0.116-0.232-0.193-0.484-0.31-0.716c-0.245-0.483-0.504-0.962-0.761-1.439c-0.035-0.065-0.146-0.133-0.134-0.174
		c0.561-1.994-1.321-3.427-1.166-5.395c0.216-2.745,0.152-5.514,0.179-8.272c0.006-0.601,0.292-0.789,0.784-1.113
		c2.048-1.352,4.324-0.996,6.544-1.104c0.808-0.038,1.614-0.08,2.421-0.121c0.016-0.144,0.03-0.286,0.045-0.43
		c-0.409-0.109-0.818-0.312-1.229-0.315c-4.319-0.046-8.639-0.07-12.958-0.067c-0.489,0-0.979,0.206-1.262,0.27
		c0.201,1.21,0.457,2.26,0.532,3.321c0.107,1.515,0.034,3.041,0.134,4.556c0.044,0.675,0.328,1.334,0.493,2.002
		c0.046,0.186,0.152,0.466,0.07,0.556c-0.994,1.09-0.612,2.447-0.604,3.658c0.008,1.278-1.039,1.859-1.408,2.85
		c-0.042,0.114-0.367,0.152-0.377,0.246c-0.135,1.228-1.542,1.905-1.373,3.303c0.046,0.378-0.449,0.811-0.665,1.234
		c-0.116,0.228-0.228,0.486-0.236,0.734c-0.061,1.839-0.109,3.677-0.119,5.516c-0.001,0.251,0.236,0.504,0.363,0.756
		c0.236-0.178,0.484-0.343,0.707-0.536c0.529-0.455,0.977-1.074,1.583-1.356c1.302-0.605,1.497-0.425,1.497,1.008
		c0,2.948,0,5.896,0,9.066c-1.883-0.115-3.715,0.077-5.326-0.432c-1.104-0.35-2.363-0.373-3.271-0.894
		c-1.213-0.697-2.776-1.017-3.5-2.554c-0.415-0.882-1.325-1.518-1.862-2.36c-0.289-0.452-0.259-1.107-0.408-1.842
		c-1.253,1.146-2.93,1.311-3.807,2.818c-0.347,0.595-1.482,0.681-2.012,1.234c-0.595,0.621-1.607,0.653-1.962,1.636
		c-0.167,0.463-0.798,0.879-1.311,1.072c-1.574,0.592-2.684,1.727-3.768,2.921c-0.072,0.08-0.195,0.154-0.298,0.16
		c-1.271,0.067-1.881,0.979-2.597,1.858c-0.416,0.511-1.171,0.73-1.726,1.146c-0.779,0.584-1.506,1.234-2.271,1.837
		c-0.162,0.128-0.418,0.273-0.579,0.228c-0.157-0.044-0.309-0.309-0.355-0.502c-0.388-1.602-0.848-3.208-1.283-4.771
		c-0.395-1.42-0.694-2.826-0.949-4.271c-0.143-0.804-0.529-1.57-0.849-2.336c-0.464-1.107,0.843-1.181,1.138-1.899
		c0.231-0.565,1.216-0.816,1.859-1.218c0.661-0.413,1.487-0.708,1.928-1.291c0.629-0.831,1.373-1.361,2.274-1.811
		c0.625-0.312,1.231-0.749,1.704-1.261c1.038-1.122,2.159-2.097,3.57-2.723c0.171-0.076,0.376-0.525,0.327-0.577
		c-0.762-0.81-1.613-1.538-2.342-2.375c-0.898-1.031-2.525-1.013-3.232-2.064c-0.77-1.146-2.483-1.73-2.248-3.51
		c-1.946-2.298-0.503-4.979-0.84-7.46c-0.021-0.152-0.026-0.383,0.064-0.464c1.304-1.178,0.734-2.736,0.803-4.133
		c0.102-2.074,0.07-4.158,0.023-6.236c-0.021-0.881,0.352-1.932-0.774-2.512c-0.116-0.061-0.157-0.374-0.141-0.563
		c0.122-1.411-0.922-2.112-1.742-2.973c-0.856-0.899-1.627-1.88-2.483-2.78c-0.396-0.416-0.854-0.898-1.372-1.05
		c-1.645-0.484-2.527-1.84-3.658-2.923c-0.4-0.383-0.831-0.814-1.331-1c-1.577-0.589-2.515-1.91-3.691-2.969
		c-0.615-0.554-1.428-0.882-2.097-1.385c-0.617-0.464-1.152-1.035-1.743-1.537c-0.166-0.141-0.421-0.171-0.599-0.301
		c-0.812-0.591-1.61-1.201-2.415-1.8c-0.497-0.37-0.949-0.867-1.507-1.069c-1.098-0.398-1.872-1.105-2.64-1.951
		c-0.511-0.562-1.411-0.75-2.027-1.242c-1.188-0.949-2.525-1.162-3.977-1.125c-0.241,0.006-0.48-0.4-0.738-0.425
		c-0.698-0.068-1.406-0.034-2.11-0.035c-0.017,0-0.024,0.077-0.051,0.104c-0.686,0.69-6.183,0.531-6.941-0.08
		c-0.374-0.301-1-0.397-1.513-0.4C9.786,35,8.426,34.224,7.148,33.202c-0.94-0.752-1.936-1.439-2.836-2.235
		c-0.499-0.442-0.865-1.038-1.268-1.582c-0.592-0.798-1.445-1.539-1.675-2.435c-0.308-1.195-1.624-1.955-1.325-3.334
		c0.044-0.204,0.162-0.482,0.319-0.546c0.174-0.07,0.592,0.014,0.627,0.121c0.322,0.974,1.142,0.661,1.803,0.75
		c0.822,0.111,1.815-0.267,2.298,0.813c0.024,0.055,0.13,0.089,0.203,0.103c1.778,0.347,3.555,0.703,5.338,1.027
		c0.625,0.114,1.141,0.118,1.716,0.693c0.424,0.423,1.647,0.149,2.486,0.015c0.505-0.081,0.996-0.442,1.426-0.766
		c0.636-0.478,1.186-1.069,1.823-1.546c0.522-0.391,1.017-0.729,1.204-1.431c0.136-0.511,0.502-0.957,0.732-1.447
		c0.116-0.246,0.092-0.574,0.243-0.783c1.63-2.258,0.611-4.75,0.658-7.145c-1.315-0.424-0.355-2.26-1.674-2.712
		c-0.118-0.041-0.053-0.477-0.179-0.654c-0.542-0.758-1.101-1.508-1.7-2.221c-0.318-0.378-0.756-0.653-1.099-1.015
		c-0.813-0.856-1.595-1.741-2.403-2.601c-0.097-0.103-0.28-0.119-0.416-0.19c-0.756-0.397-1.532-0.765-2.245-1.228
		c-0.141-0.092-0.146-0.758-0.033-0.818c0.754-0.398,1.543-0.947,2.348-0.995c2.351-0.14,4.715-0.094,7.073-0.055
		c0.435,0.007,0.869,0.312,1.292,0.505c0.171,0.078,0.346,0.349,0.461,0.318c1.39-0.374,2.438,0.699,3.338,1.238
		c1.173,0.704,2.761,1.125,3.435,2.667c0.245,0.561,1.004,0.895,1.527,1.335c0.114,0.096,0.267,0.182,0.322,0.307
		c0.426,0.97,0.617,2.15,1.295,2.879c1.094,1.177,0.488,2.686,1.063,3.797c0.9,1.74,0.193,3.815,1.01,5.219
		c0.756,1.298,0.06,3.087,1.588,3.952c0.048,0.027,0.059,0.145,0.063,0.221c0.088,1.509,0.996,2.573,1.888,3.687
		c0.558,0.697,0.851,1.601,1.324,2.374c0.308,0.502,0.65,1.038,1.109,1.383c1.124,0.848,1.932,2.047,2.984,2.874
		c1.038,0.815,1.76,2.157,3.344,2.361c0.54,0.069,0.958,0.958,1.469,1.432c0.47,0.438,0.929,1.016,1.499,1.194
		c1.652,0.517,2.571,1.817,3.689,2.964c0.623,0.639,1.573,0.96,2.376,1.424c0.118-0.095,0.235-0.19,0.353-0.286
		c0-0.749-0.062-1.505,0.015-2.247c0.104-1.011-0.301-2.142,0.784-2.961c0.257-0.194,0.103-0.913,0.167-1.386
		c0.117-0.868-0.144-1.876,0.872-2.426c0.054-0.029,0.071-0.139,0.093-0.215c0.394-1.37,0.68-2.784,1.212-4.097
		c0.375-0.925,1.108-1.701,1.635-2.571c0.353-0.583,0.594-1.231,0.94-1.818c0.39-0.664,0.706-1.489,1.294-1.894
		c1.285-0.883,1.345-2.645,2.846-3.434c0.927-0.488,1.438-1.731,2.206-2.57c0.431-0.47,1.003-0.812,1.521-1.199
		c0.088-0.066,0.249-0.038,0.335-0.105c0.944-0.736,0.955-0.75,1.13-0.542c0.344,0.407,0.681,0.821,1.006,1.244
		c0.602,0.781,1.195,1.569,1.79,2.355c0.408,0.539,0.792,1.098,1.234,1.607c0.105,0.122,0.399,0.08,0.425,0.083
		c-0.189-1.015-0.36-1.987-0.557-2.954c-0.068-0.334-0.195-0.658-0.313-0.98c-0.199-0.539-0.467-1.059-0.608-1.612
		c-0.209-0.817,0.23-1.788-0.811-2.42c-0.28-0.17-0.138-1.035-0.193-1.621c1.248-0.438,2.56-0.628,3.516-1.315
		c0.808-0.581,1.435-1.064,2.387-0.803c0.356,1.714,0.763,3.36,1.02,5.03c0.157,1.019,0.044,2.077,0.123,3.112
		c0.106,1.399-0.066,2.793,0.736,4.156c0.455,0.773,0.246,1.95,0.293,2.947c0.057,1.198,0.056,2.398,0.108,3.597
		c0.016,0.354,0.126,0.705,0.194,1.057c0.155,0.006,0.309,0.013,0.464,0.02c0.091-0.538,0.262-1.076,0.263-1.614
		c0.01-5.719,0.082-11.44-0.07-17.156c-0.047-1.743,0.558-3.178,1.133-4.688c0.063-0.166,0.327-0.317,0.523-0.359
		c0.505-0.109,1.036-0.105,1.535-0.231c3.055-0.775,6.165-0.972,9.288-0.748c1.665,0.119,3.185,0.801,4.406,1.968
		c0.224,0.214,0.189,0.749,0.19,1.136c0.011,5.599-0.001,11.198,0.01,16.796c0.004,1.839,0.047,3.679,0.088,5.519
		c0.01,0.413,0.082,0.824,0.125,1.237c0.134,0.003,0.267,0.007,0.4,0.011c0.099-0.792,0.09-1.616,0.315-2.37
		c1.119-3.742,0.895-7.604,1.106-11.427c1.371-1.934,0.572-4.195,0.985-6.264c0.122-0.612,0.779-1.297,1.367-1.576
		c0.427-0.202,1.144,0.213,1.731,0.349c0.837,0.193,1.69,0.333,2.507,0.593c0.428,0.137,0.945,0.395,1.144,0.752
		c0.248,0.448,0.329,1.017-0.417,1.381c-0.281,0.137-0.339,0.825-0.414,1.276c-0.155,0.924,0.304,2.026-0.866,2.648
		c-0.141,0.075-0.07,0.525-0.121,0.797c-0.146,0.794,0.251,1.729-0.805,2.295c-0.252,0.135-0.101,1.022-0.157,1.931
		c0.75-0.628,1.236-1.036,1.723-1.443c-0.04-0.021-0.08-0.041-0.12-0.062c0.532-0.955,1.062-1.91,1.596-2.863
		c0.241-0.429,0.456-0.879,0.755-1.264c0.148-0.19,0.587-0.419,0.676-0.35c1.104,0.854,2.221,1.704,3.225,2.668
		c1.388,1.331,2.709,2.735,4.011,4.153c0.996,1.084,1.988,2.186,2.848,3.376c0.536,0.743,0.774,1.694,1.234,2.501
		c0.444,0.78,1.001,1.496,1.51,2.239c0.087,0.127,0.222,0.237,0.267,0.376c0.425,1.334,0.836,2.673,1.248,4.012
		c0.022,0.075-0.016,0.202,0.027,0.232c1.363,0.96,0.429,2.648,1.055,3.641c0.87,1.379,0.761,2.787,1.004,4.204
		c0.018,0.102,0.573,0.246,0.779,0.152c0.327-0.15,0.65-0.437,0.837-0.748c0.794-1.327,2.478-1.5,3.388-2.819
		c0.698-1.013,2.11-1.519,3.156-2.314c0.61-0.464,1.128-1.053,1.683-1.59c0.374-0.363,0.699-0.79,1.116-1.092
		c1.117-0.812,2.299-1.535,3.398-2.367c0.562-0.424,0.963-1.056,1.505-1.511c0.92-0.771,1.905-1.463,2.843-2.215
		c0.753-0.604,1.476-1.248,2.212-1.875c0.349-0.297,0.674-0.628,1.049-0.888c0.701-0.487,1.446-0.911,2.142-1.405
		c0.579-0.411,1.131-0.865,1.661-1.338c0.977-0.871,1.978-1.724,2.872-2.676c0.513-0.545,0.741-1.362,1.262-1.896
		c1.121-1.147,0.818-2.594,1.042-3.942c0.297-1.787-0.425-3.322-1.257-4.75c-0.377-0.647-1.338-0.945-2.016-1.428
		c-0.665-0.475-1.281-1.021-1.968-1.461c-0.36-0.231-0.816-0.324-1.241-0.437c-0.619-0.165-1.478,0.298-1.774-0.744
		c-0.038-0.133-0.58-0.159-0.892-0.17c-1.358-0.049-2.728,0.011-4.074-0.135c-0.986-0.107-1.942-0.483-2.917-0.717
		c-0.308-0.074-0.631-0.098-0.947-0.104c-1.76-0.031-3.521-0.085-5.278-0.056c-0.839,0.014-0.877-0.458-0.892-1.067
		c-0.015-0.621,0.026-1.126,0.863-1.076c0.557,0.034,1.122,0.007,1.679-0.041c0.999-0.087,2.053,0.167,2.936-0.651
		c0.262-0.243,0.842-0.177,1.278-0.19c1.799-0.052,3.599-0.058,5.397-0.127c0.825-0.032,1.752,0.264,2.359-0.7
		c0.119-0.19,0.673-0.141,1.027-0.144c2.159-0.015,4.319-0.037,6.479-0.005c0.8,0.011,1.58-0.091,2.312,0.64
		c0.391,0.39,1.366,0.181,2.075,0.265c1.015,0.12,2.191-0.315,2.916,0.84c0.043,0.068,0.228,0.039,0.34,0.073
		c1.385,0.409,2.812,0.714,4.138,1.264c1.174,0.486,2.328,1.126,3.322,1.911c1.428,1.127,2.923,2.139,4.407,3.18
		c0.949,0.666,1.63,1.706,2.552,2.424c1.192,0.931,1.709,2.366,2.811,3.42c0.932,0.891,2.246,1.842,2.488,3.459
		c0.086,0.577,0.8,1.05,1.193,1.595c0.235,0.327,0.504,0.68,0.582,1.058c0.146,0.701-0.146,1.542,0.833,1.91
		c0.137,0.051,0.155,0.501,0.171,0.771c0.057,0.958-0.008,1.934,0.153,2.871c0.228,1.334,0.414,2.74,0.999,3.927
		c0.453,0.921,1.419,1.648,2.282,2.296c1.425,1.069,3.097,1.844,4.393,3.039c1.416,1.304,2.977,2.794,2.208,5.081
		c-0.327,0.977-0.891,1.897-1.474,2.757c-0.463,0.682-1.067,1.296-1.707,1.82c-0.662,0.542-1.584,0.813-2.14,1.43
		c-0.819,0.91-2.329,0.517-2.948,1.75c-0.097,0.194-0.75,0.108-1.145,0.156c-0.688,0.084-1.486-0.259-1.931,0.712
		c-0.091,0.197-1.246,0.242-1.396,0.016c-0.508-0.764-1.202-0.706-1.896-0.708c-0.803-0.002-1.026-0.533-1.456-1.096
		c-1.648-2.161-0.743-4.618-1.031-6.928c-0.143-1.135,0.569-2.464-0.758-3.354c-0.13-0.087-0.039-0.465-0.105-0.692
		c-0.355-1.229-0.664-2.478-1.126-3.667c-0.181-0.465-0.705-0.805-1.097-1.177c-1.006-0.956-2.012-1.913-3.053-2.831
		c-0.18-0.159-0.526-0.171-0.797-0.176c-1.438-0.022-2.91-0.209-4.305,0.038c-0.971,0.172-1.836,0.947-2.745,1.46
		c-0.06,0.034-0.077,0.185-0.126,0.191c-0.905,0.119-1.566,0.69-2.328,1.096c-0.998,0.531-1.85,1.058-2.62,1.907
		c-0.558,0.614-1.506,0.865-2.257,1.315c-0.518,0.311-1.269,0.589-1.432,1.053c-0.309,0.877-0.979,0.697-1.547,0.934
		c-0.459,0.191-0.804,0.649-1.206,0.98c-1.128,0.925-2.16,2.025-3.418,2.715c-1.238,0.679-1.956,2.109-3.542,2.285
		c-0.426,0.047-0.784,0.643-1.185,0.972c-0.737,0.605-1.457,1.237-2.232,1.79c-1.101,0.785-2.268,1.478-3.364,2.269
		c-0.598,0.431-1.103,0.99-1.663,1.475c-0.185,0.16-0.426,0.252-0.622,0.4c-0.777,0.583-1.543,1.184-2.323,1.763
		c-0.58,0.431-1.146,0.9-1.779,1.236c-0.499,0.264-1.76,1.26-2.28,1.784c-0.804,0.809-1.735,1.489-2.565,2.274
		c-0.515,0.486-0.918,1.088-1.415,1.596c-0.494,0.507-1.034,0.97-1.568,1.436c-0.412,0.359-0.987,0.612-1.241,1.056
		c-0.636,1.11-1.574,1.599-2.746,2.013c-0.926,0.326-1.664,1.165-2.515,1.734c-0.208,0.139-0.546,0.067-0.79,0.172
		c-0.416,0.178-0.8,0.429-1.207,0.628c-0.237,0.116-0.487,0.218-0.743,0.282c-0.844,0.214-1.811-0.197-2.498,0.879
		c-0.239,0.375-1.445,0.067-2.183,0.21c-0.519,0.1-0.986,0.446-1.487,0.657c-0.279,0.117-0.577,0.239-0.874,0.261
		c-0.956,0.069-1.918,0.075-2.875,0.142c-0.4,0.028-0.795,0.146-1.192,0.225c-0.001,0.104-0.002,0.209-0.002,0.313
		c0.223,0.08,0.445,0.228,0.668,0.229c1.84,0.007,3.682,0.048,5.517-0.053c0.869-0.048,1.716-0.448,2.589-0.553
		c0.309-0.037,0.666,0.333,1.002,0.517c-0.255,0.376-0.433,0.968-0.777,1.091c-1.415,0.506-3.053,0.595-4.279,1.363
		c-1.182,0.739-2.623,0.314-3.469,0.933c-1.221,0.891-2.483,0.55-3.661,0.931c-1.036,0.335-1.958,1.028-2.924,1.575
		c-0.551,0.312-1.106,0.619-1.628,0.976c-1.171,0.8-1.538,2.157-2.283,3.251c-0.865,1.27-1.629,2.511-1.854,4.025
		c-0.09,0.607-0.015,1.239-0.015,1.979c0.651,0.034,1.211-0.008,1.735,0.112c0.565,0.129,1.092,0.424,1.645,0.619
		c0.331,0.116,0.678,0.24,1.021,0.255c1.038,0.045,2.079,0.063,3.118,0.039c0.63-0.015,1.399,0.23,1.7-0.678
		c0.024-0.077,0.217-0.17,0.301-0.146c1.597,0.453,2.624-0.954,4.003-1.237c0.469-0.097,1.006-0.52,1.247-0.943
		c0.93-1.639,3.093-2.317,3.388-4.464c0.063-0.458,0.501-0.945,0.895-1.26c1.143-0.913,1.172-2.599,2.652-3.376
		c0.979-0.515,1.526-1.796,2.387-2.607c1.219-1.151,2.545-2.189,3.832-3.268c0.714-0.599,1.424-1.203,2.173-1.755
		C125.32,65.015,125.648,65.083,125.981,65.052z M119.078,53.9c-1.443,0.33-3.176-0.637-4.34,0.966
		c-0.03,0.043-0.153,0.019-0.232,0.026c-1.476,0.137-2.897,0.379-4.36,0.774c-2.543,0.686-5.357,0.053-7.89,1.2
		c-5.317,0.052-10.637,0.187-15.954,0.122c-2.7-0.032-5.379,0.161-8.105-0.73c-2.639-0.863-5.645-0.032-8.365-1.204
		c-0.79-0.34-1.818-0.114-2.736-0.174c-0.308-0.02-0.795-0.022-0.887-0.198c-0.707-1.342-1.92-0.479-2.872-0.702
		c-0.099-0.023-0.345,0.208-0.373,0.35c-0.03,0.154,0.073,0.454,0.19,0.499c1.035,0.393,2.085,0.749,3.135,1.103
		c0.185,0.063,0.52,0.003,0.566,0.102c0.534,1.148,1.632,0.706,2.492,0.925c0.262,0.066,0.526,0.138,0.776,0.238
		c0.579,0.234,1.13,0.598,1.73,0.709c0.937,0.173,1.914,0.118,2.855,0.274c1.062,0.177,2.091,0.583,3.156,0.702
		c1.347,0.151,2.716,0.098,4.073,0.165c0.345,0.018,0.69,0.136,1.022,0.246c0.53,0.177,1.049,0.552,1.575,0.556
		c4.999,0.041,9.998,0.024,14.998,0.012c0.352-0.001,0.874,0.028,1.025-0.174c0.651-0.872,1.564-0.604,2.401-0.706
		c2.897-0.356,5.795-0.725,8.691-1.097c0.148-0.019,0.288-0.114,0.432-0.176c0.614-0.264,1.217-0.559,1.846-0.777
		c0.367-0.128,0.817-0.05,1.159-0.212c1.168-0.554,2.262-1.289,3.467-1.726c0.756-0.274,0.704-0.586,0.494-1.122
		c0.504-0.002,1.01,0.02,1.511-0.021c0.139-0.012,0.313-0.192,0.375-0.336c0.041-0.096-0.05-0.316-0.149-0.393
		C120.237,52.704,119.237,53.169,119.078,53.9z M57.322,63.104c-0.822,1.661,0.625,2.626,1.14,3.749
		c0.436,0.951,1.744,1.498,2.655,2.238c0.741,0.602,1.473,1.213,2.191,1.841c0.362,0.317,0.666,0.7,1.027,1.018
		c0.769,0.673,1.607,1.283,1.778,2.401c0.027,0.174,0.106,0.429,0.232,0.482c1.168,0.504,1.166,1.832,1.533,2.694
		c0.43,1.01,1.095,1.724,1.705,2.506c0.726,0.932,1.527,1.889,2.5,2.518c0.859,0.555,1.483,1.665,2.822,1.451
		c0.396-0.063,0.871,0.402,1.316,0.612c0.203,0.096,0.419,0.227,0.631,0.229c1.878,0.019,3.756,0.013,5.635,0.006
		c0.153-0.001,0.408-0.022,0.445-0.107c0.472-1.108,1.479-0.751,2.28-0.789c0.982-0.047,0.982-1.151,1.726-1.397
		c-0.092-0.198-0.166-0.407-0.279-0.591c-0.158-0.255-0.404-0.467-0.511-0.736c-0.4-1.008-0.755-2.033-1.138-3.048
		c-0.037-0.097-0.15-0.161-0.213-0.251c-0.252-0.364-0.521-0.721-0.738-1.105c-0.112-0.198-0.053-0.532-0.198-0.665
		c-1.017-0.929-2.021-1.882-3.123-2.705c-0.771-0.576-1.643-1.099-2.551-1.392c-1.207-0.39-2.47-0.158-3.752-0.892
		c-1.227-0.702-2.927-0.414-4.458-0.978c-1.766-0.648-3.564-0.996-5.237-2.072c-1.018-0.653-2.148-0.997-2.959-2.063
		c-0.664-0.874-2.087-1.291-2.491-2.21C58.757,62.633,58.1,63.021,57.322,63.104z"/>
	<path fill-rule="evenodd" clip-rule="evenodd" d="M155.995,112.07c0.026,0.353-0.005,0.645,0.075,0.901
		c0.427,1.371-0.761,1.994-1.339,2.881c-0.382,0.585-0.912,1.072-1.471,1.711c0.713,0.156,1.174,0.884,1.925-0.293
		c0.399-0.627,1.273-1.896,2.776-1.206c-0.061,1.101,0.445,2.322-0.547,3.385c-0.149,0.159-0.232,0.438-0.237,0.664
		c-0.033,1.386-0.92,2.177-1.873,3.021c-0.833,0.737-1.398,1.771-2.208,2.543c-0.861,0.821-1.884,1.47-2.81,2.226
		c-0.769,0.627-1.444,1.383-2.262,1.933c-0.735,0.495-1.689,0.678-2.397,1.2c-0.803,0.592-1.575,1.072-2.587,0.86
		c-0.359-0.075-0.684-0.33-1.013-0.522c-0.093-0.055-0.145-0.256-0.216-0.257c-0.989-0.011-1.793-0.382-2.553-1.029
		c-0.643-0.548-1.465-0.88-2.148-1.387c-0.757-0.562-1.454-1.206-2.164-1.828c-0.628-0.549-1.225-1.135-1.865-1.669
		c-0.251-0.209-0.584-0.321-0.934-0.506c0.055-1.097-0.438-2.252,0.709-3.25c0.364-0.316,0.148-1.296,0.208-1.972
		c0.06-0.683-0.119-1.373,0.637-1.926c0.314-0.23,0.207-1.039,0.29-1.585c0.17-1.125-0.33-2.412,0.862-3.301
		c0.177-0.131,0.101-0.607,0.137-0.924c0.124-1.097-0.229-2.317,0.859-3.166c0.118-0.092,0.138-0.387,0.109-0.574
		c-0.206-1.378,0.688-2.344,1.282-3.407c0.475-0.851,1.333-0.797,1.849-0.024c0.381,0.57,0.894,1.055,1.358,1.567
		c0.548,0.605,0.63,1.086,0.221,1.953c-0.495,1.052-0.476,2.351-0.629,3.55c-0.007,0.051,0.624,0.319,0.737,0.225
		c0.464-0.39,0.834-0.888,1.253-1.332c0.557-0.589,1.127-1.165,1.692-1.747c0.078-0.081,0.223-0.154,0.229-0.239
		c0.097-1.28,0.963-1.941,1.904-2.647c0.536-0.402,0.778-1.18,1.211-1.742c0.317-0.413,0.692-0.802,1.107-1.114
		c0.938-0.706,1.447-1.777,2.154-2.572c0.89-1.002,1.437-2.801,3.414-2.72c0.658,0.026,1.345-0.646,2.055-1.017
		c0.748,2.022-0.062,3.141-1.292,4.229c-0.872,0.771-1.563,1.764-2.262,2.712c-0.622,0.841-1.292,1.652-1.931,2.446
		c-0.809,1.008-2.172,1.696-2.398,3.194c-0.074,0.492-0.728,1.285-0.643,1.354c0.836,0.674,0.77-0.466,1.2-0.685
		c0.77-0.39,1.596-0.697,2.29-1.192c0.547-0.391,0.932-1.011,1.387-1.53c0.026-0.029,0.052-0.099,0.064-0.096
		c0.259,0.062,0.516,0.13,0.772,0.197c-0.449,0.771,1.835,0.327,0.644,1.511c-0.653,0.649-1.113,1.497-1.639,2.271
		c-0.404,0.597-0.757,1.229-1.168,1.821c-0.167,0.241-0.426,0.419-0.643,0.625c0.153,0.093,0.326,0.284,0.455,0.259
		c0.428-0.087,0.941-0.141,1.236-0.409c0.725-0.659,1.302-1.543,2.379-1.61C154.816,111.794,155.395,111.98,155.995,112.07z"/>
	<path fill-rule="evenodd" clip-rule="evenodd" d="M47.965,100.892c0.331,0.82-0.325,1.944,0.935,2.376
		c0.168,0.058,0.109,0.746,0.178,1.139c0.167,0.957-0.286,2.07,0.815,2.806c0.21,0.14,0.085,0.759,0.143,1.153
		c0.142,0.976-0.145,2.021,0.822,2.845c0.338,0.288,0.193,1.136,0.281,1.726c0.115,0.771-0.248,1.727,0.815,2.139
		c0.029,0.012,0.053,0.064,0.059,0.102c0.354,2.015,0.83,4.021,0.968,6.051c0.034,0.506-1.003,1.112-1.589,1.624
		c-0.706,0.616-1.45,1.189-2.19,1.765c-0.6,0.467-1.248,0.876-1.82,1.372c-0.477,0.413-0.824,0.982-1.318,1.366
		c-0.998,0.773-1.823,2.012-3.338,1.666c-0.627-0.144-1.194-0.553-1.785-0.85c-0.772-0.388-1.664-0.648-2.278-1.211
		c-0.82-0.751-2.076-0.745-2.717-1.806c-0.276-0.457-0.93-0.761-1.476-0.965c-1.595-0.596-2.417-1.989-3.55-3.088
		c-0.563-0.546-0.696-1.042-0.962-1.646c-0.274-0.621-1.013-1.031-1.312-1.647c-0.64-1.322-1.155-2.708-1.647-4.094
		c-0.069-0.194,0.276-0.535,0.429-0.809c0.273,0.154,0.55,0.302,0.819,0.463c0.315,0.19,0.62,0.4,0.937,0.587
		c0.359,0.213,0.728,0.409,1.092,0.612c-0.037,0.103-0.074,0.205-0.111,0.307c0.432,0,0.88,0.068,1.286-0.035
		c0.15-0.038,0.355-0.594,0.266-0.718c-0.525-0.728-1.005-1.607-1.735-2.038c-1.247-0.737-0.924-1.782-0.919-2.813
		c0-0.069,0.064-0.139,0.139-0.291c0.708,0.094,1.418-0.346,2.136,0.598c0.354,0.466,1.626,0.234,2.483,0.317
		c-0.037-0.309-0.007-0.647-0.128-0.918c-0.137-0.304-0.439-0.528-0.621-0.817c-0.574-0.91-1.125-1.835-1.683-2.753
		c0.377-0.402,0.746-0.795,1.185-1.264c0.953,0.848,1.869,1.712,2.846,2.5c0.284,0.229,0.745,0.315,1.125,0.313
		c0.189-0.001,0.571-0.46,0.534-0.525c-0.465-0.827-0.951-1.648-1.513-2.411c-0.417-0.566-0.981-1.021-1.429-1.566
		c-0.906-1.103-1.809-2.21-2.654-3.358c-0.977-1.327-2.682-2.332-2.305-4.307c0.126-0.664,0.766-1.24,1.217-1.821
		c0.05-0.064,0.476,0.04,0.604,0.18c0.923,1.006,1.85,2.013,2.704,3.077c0.557,0.694,0.939,1.528,1.496,2.223
		c0.683,0.852,1.487,1.603,2.2,2.432c0.969,1.126,2.446,1.801,2.88,3.421c0.141,0.527,0.627,0.986,1.022,1.416
		c0.948,1.033,1.924,2.043,2.927,3.022c0.09,0.088,0.669-0.107,0.671-0.182c0.012-0.428,0.08-1.037-0.166-1.26
		c-1.319-1.195-0.506-2.686-0.621-4.027c-0.025-0.294,0.495-0.689,0.834-0.946C45.83,101.652,46.467,100.446,47.965,100.892z"/>
	<path fill-rule="evenodd" clip-rule="evenodd" d="M103.025,119.464c-1.498,0.794-2.714,1.437-3.925,2.086
		c-0.098,0.053-0.152,0.209-0.249,0.234c-1.511,0.397-3.009,1.013-4.542,1.117c-2.702,0.185-5.426,0.083-8.139,0.034
		c-0.447-0.008-0.889-0.357-1.334-0.548c-0.253-0.108-0.499-0.245-0.762-0.316c-1.483-0.404-2.988-0.738-4.447-1.215
		c-0.573-0.188-1.057-0.667-1.564-1.038c-0.84-0.614-1.671-1.242-2.494-1.88c-0.163-0.126-0.414-0.403-0.375-0.475
		c0.109-0.199,0.384-0.485,0.53-0.452c0.474,0.105,0.926,0.327,1.375,0.53c0.162,0.073,0.274,0.291,0.434,0.324
		c1.895,0.392,3.801,0.731,5.69,1.149c0.647,0.144,1.249,0.483,1.883,0.7c0.29,0.1,0.607,0.168,0.912,0.169
		c2.675,0.007,5.35,0.015,8.024-0.031c0.373-0.006,0.736-0.309,1.111-0.454c0.354-0.138,0.711-0.335,1.076-0.357
		c1.911-0.117,3.825-0.181,5.738-0.275C102.668,118.732,103.205,118.828,103.025,119.464z"/>
	<path fill-rule="evenodd" clip-rule="evenodd" fill="#FFFFFF" d="M57.322,63.104c0.778-0.084,1.436-0.472,1.968,0.743
		c0.403,0.919,1.827,1.336,2.491,2.21c0.812,1.066,1.942,1.41,2.959,2.063c1.673,1.076,3.472,1.424,5.237,2.072
		c1.531,0.563,3.231,0.275,4.458,0.978c1.282,0.733,2.545,0.502,3.752,0.892c0.909,0.293,1.78,0.815,2.551,1.392
		c1.101,0.823,2.106,1.776,3.123,2.705c0.146,0.133,0.086,0.467,0.198,0.665c0.217,0.385,0.486,0.741,0.738,1.105
		c0.063,0.09,0.177,0.154,0.213,0.251c0.382,1.015,0.738,2.04,1.138,3.048c0.107,0.27,0.353,0.481,0.511,0.736
		c0.114,0.184,0.188,0.393,0.279,0.591c-0.744,0.246-0.744,1.351-1.726,1.397c-0.801,0.038-1.809-0.319-2.28,0.789
		c-0.037,0.085-0.292,0.106-0.445,0.107c-1.878,0.007-3.757,0.013-5.635-0.006c-0.212-0.002-0.428-0.133-0.631-0.229
		c-0.445-0.21-0.921-0.675-1.316-0.612c-1.339,0.214-1.963-0.896-2.822-1.451c-0.973-0.629-1.775-1.586-2.5-2.518
		c-0.61-0.782-1.275-1.496-1.705-2.506c-0.367-0.862-0.365-2.19-1.533-2.694c-0.125-0.054-0.205-0.309-0.232-0.482
		c-0.171-1.118-1.01-1.729-1.778-2.401c-0.362-0.317-0.666-0.7-1.027-1.018c-0.718-0.628-1.451-1.239-2.191-1.841
		c-0.911-0.74-2.219-1.287-2.655-2.238C57.947,65.73,56.5,64.766,57.322,63.104z"/>
	<path fill-rule="evenodd" clip-rule="evenodd" fill="#FFFFFF" d="M119.045,53.868c0.213,0.54,0.265,0.852-0.491,1.126
		c-1.205,0.437-2.299,1.172-3.467,1.726c-0.342,0.162-0.792,0.084-1.159,0.212c-0.629,0.219-1.231,0.514-1.846,0.777
		c-0.144,0.062-0.283,0.157-0.432,0.176c-2.896,0.372-5.794,0.74-8.691,1.097c-0.837,0.103-1.75-0.166-2.401,0.706
		c-0.151,0.202-0.674,0.173-1.025,0.174c-5,0.013-9.999,0.029-14.998-0.012c-0.526-0.004-1.044-0.379-1.575-0.556
		c-0.332-0.11-0.678-0.229-1.022-0.246c-1.357-0.067-2.726-0.014-4.073-0.165c-1.064-0.119-2.094-0.525-3.156-0.702
		c-0.941-0.156-1.919-0.102-2.855-0.274c-0.6-0.111-1.151-0.475-1.73-0.709c-0.25-0.101-0.514-0.172-0.776-0.238
		c-0.859-0.219-1.958,0.224-2.492-0.925c-0.046-0.099-0.381-0.039-0.566-0.102c-1.05-0.354-2.1-0.71-3.135-1.103
		c-0.118-0.045-0.221-0.345-0.19-0.499c0.028-0.143,0.273-0.374,0.373-0.35c0.951,0.222,2.165-0.641,2.872,0.702
		c0.092,0.176,0.579,0.179,0.887,0.198c0.917,0.06,1.946-0.166,2.736,0.174c2.72,1.172,5.726,0.341,8.365,1.204
		c2.726,0.892,5.405,0.698,8.105,0.73c5.316,0.064,10.636-0.07,15.954-0.122c2.532-1.147,5.347-0.515,7.89-1.2
		c1.463-0.396,2.885-0.638,4.36-0.774c0.079-0.008,0.202,0.017,0.232-0.026c1.164-1.603,2.896-0.636,4.34-0.966L119.045,53.868z"/>
	<path fill-rule="evenodd" clip-rule="evenodd" fill="#FFFFFF" d="M119.078,53.9c0.159-0.731,1.159-1.197,1.707-0.778
		c0.1,0.076,0.19,0.297,0.149,0.393c-0.062,0.144-0.236,0.324-0.375,0.336c-0.501,0.042-1.007,0.02-1.513,0.02
		C119.045,53.868,119.078,53.9,119.078,53.9z"/>
</g>
</svg>
